<svg xmlns="http://www.w3.org/2000/svg" width="512" height="512" fill="none"><defs><filter id="b" width="140%" height="140%" x="-20%" y="-20%"><feDropShadow dx="0" dy="18" flood-color="#000" flood-opacity=".18" stdDeviation="22"/></filter><filter id="c" width="140%" height="140%" x="-20%" y="-20%"><feDropShadow dx="0" dy="3" flood-color="#000" flood-opacity=".08" stdDeviation="4"/></filter><linearGradient id="a" x1="94" x2="418" y1="418" y2="94" gradientUnits="userSpaceOnUse"><stop offset="0" stop-color="#ffd35a"/><stop offset=".38" stop-color="#ff7a1a"/><stop offset=".72" stop-color="#ff4f4f"/><stop offset="1" stop-color="#d92b83"/></linearGradient></defs><rect width="384" height="384" x="64" y="64" fill="url(#a)" filter="url(#b)" rx="88"/><path stroke="#fff" stroke-linecap="round" stroke-linejoin="round" stroke-opacity=".42" stroke-width="28" d="M187 143h150c25.4 0 46 20.6 46 46v131"/><path stroke="#fff" stroke-linecap="round" stroke-linejoin="round" stroke-opacity=".66" stroke-width="28" d="M159 174h150c25.4 0 46 20.6 46 46v131"/><rect width="214" height="166" x="122" y="203" fill="#fff" filter="url(#c)" rx="28"/><circle cx="164" cy="248" r="17" fill="#ff8b24"/><path fill="#ff8b24" d="m142 326 47-48c6.2-6.4 16.6-5.5 21.7 1.8L236 316l22.8-23.5c6.6-6.8 17.9-5.3 22.5 3L308 344H146c-11.6 0-17.3-14.1-9.2-22.3z"/><circle cx="337" cy="337" r="64" fill="#fff" filter="url(#c)"/><path stroke="#ff7a1a" stroke-linecap="round" stroke-width="18" d="M337 294v57"/><path stroke="#ff7a1a" stroke-linecap="round" stroke-linejoin="round" stroke-width="18" d="m309 331 28 28 28-28"/><path stroke="#ff7a1a" stroke-linecap="round" stroke-width="16" d="M311 382h52"/></svg>
